<?xml version="1.0" encoding="UTF-8"?>
<svg width="17px" height="17px" viewBox="0 0 17 17" version="1.1" xmlns="http://www.w3.org/2000/svg" xmlns:xlink="http://www.w3.org/1999/xlink">
    <title>badminton</title>
    <g id="Page-1" stroke="none" stroke-width="1" fill="none" fill-rule="evenodd">
        <g id="MC_nd_Clubs" transform="translate(-122.000000, -180.000000)" fill="#366B26">
            <g id="Item-1" transform="translate(21.500000, 120.500000)">
                <g id="Group-3" transform="translate(100.500000, 3.000000)">
                    <g id="Group-4" transform="translate(0.000000, 56.500000)">
                        <path d="M7.14763841,0.181212273 C7.33650399,0.172800584 7.51650608,0.25310051 7.63631283,0.395017303 L7.69096227,0.470985 L9.64692818,3.67046227 L12.72586,3.67046227 C12.8858339,3.67046227 13.0397727,3.73384909 13.1529657,3.84704205 C13.24352,3.93759023 13.3021985,4.05422321 13.3220477,4.17916307 L13.3295455,4.27414773 L13.3295455,7.35307955 L16.5289995,9.30900489 C16.7169017,9.42371625 16.8270772,9.63198557 16.8172655,9.85157534 C16.808208,10.0398117 16.7126587,10.2113983 16.5610432,10.3178841 L16.4807041,10.3654776 L8.80599545,14.1636112 L7.48332922,15.4899726 C7.45688388,15.5377832 7.42346126,15.5827649 7.38306136,15.623425 C6.58543295,16.4052125 5.5116125,16.8391184 4.39473182,16.8309327 C3.27806364,16.8392667 2.20420455,16.405367 1.40655682,15.6235795 C0.614202273,14.831225 0.168995455,13.7558977 0.168995455,12.63525 C0.168995455,11.561986 0.577367082,10.5303618 1.30792035,9.74893721 C1.33324073,9.70190324 1.36647808,9.65726613 1.40659545,9.61689034 L2.84299545,8.17961115 L6.63450886,0.519280455 C6.71730107,0.34981474 6.87382565,0.23024718 7.05514126,0.192890254 L7.14763841,0.181212273 Z M1.85699545,10.9176112 C1.47689432,11.495033 1.3056,12.1900432 1.37653636,12.8820977 C1.44671545,13.574075 1.75383977,14.2207898 2.24585455,14.7120511 L2.26389773,14.7361023 C2.75440568,15.2371773 3.40486818,15.5510977 4.10213864,15.6250477 C4.79940909,15.6989997 5.50044659,15.5277015 6.08534318,15.1405864 L3.10199545,12.1576112 L1.85699545,10.9176112 Z M3.33234773,9.39949318 L2.68638636,10.0454545 L6.95454545,14.3136136 L7.60050682,13.6676523 L3.33234773,9.39949318 Z M12.8161068,8.45209091 L8.45999545,12.8076112 L8.58199545,12.9286112 L14.9652545,9.76814205 L12.8161068,8.45209091 Z M12.1219659,4.87803409 L9.56230682,4.87803409 L5.04399545,9.39561115 L7.60499545,11.9536112 L12.1219659,7.43769318 L12.1219659,4.87803409 Z M7.23214773,2.03459091 L4.06889205,8.42156818 L4.18963068,8.54230682 L8.54819886,4.18373864 L7.23214773,2.03459091 Z" id="Shape"></path>
                    </g>
                </g>
            </g>
        </g>
    </g>
</svg>