<?xml version="1.0" encoding="UTF-8"?>
<svg width="17px" height="17px" viewBox="0 0 17 17" version="1.1" xmlns="http://www.w3.org/2000/svg" xmlns:xlink="http://www.w3.org/1999/xlink">
    <title>bowling</title>
    <g id="Page-1" stroke="none" stroke-width="1" fill="none" fill-rule="evenodd">
        <g id="MC_nd_Clubs" transform="translate(-144.000000, -180.000000)" fill="#366B26">
            <g id="Item-1" transform="translate(21.500000, 120.500000)">
                <g id="Group-3" transform="translate(100.500000, 3.000000)">
                    <g id="Stacked-Group" transform="translate(0.000000, 56.500000)">
                        <g id="Group-5" transform="translate(22.000000, 0.000000)">
                            <path d="M8.5,0 C13.175,0 17,3.825 17,8.5 C17,13.175 13.175,17 8.5,17 C3.825,17 0,13.175 0,8.5 C0,3.825 3.825,0 8.5,0 Z M8.5,1.41695 C4.60445,1.41695 1.41695,4.60445 1.41695,8.5 C1.41695,12.39555 4.60445,15.58305 8.5,15.58305 C12.39555,15.58305 15.58305,12.39555 15.58305,8.5 C15.58305,4.60445 12.39555,1.41695 8.5,1.41695 Z M4.53305,7.50805 C5.6661,7.50805 6.65805,8.5 6.65805,9.63305 C6.65805,10.7669288 5.66692875,11.75805 4.53305,11.75805 C3.3286,11.75805 2.40805,10.7661 2.40805,9.63305 C2.40805,8.5 3.4,7.50805 4.53305,7.50805 Z M9.42055,6.51695 C10.5536,6.51695 11.54555,7.5089 11.54555,8.64195 C11.54555,9.775 10.625,10.76695 9.42055,10.76695 C8.2161,10.76695 7.29555,9.775 7.29555,8.64195 C7.29555,7.5089 8.2875,6.51695 9.42055,6.51695 Z M4.53305,8.85445 C4.10805,8.85445 3.825,9.2089 3.825,9.5625 C3.825,9.91695 4.17945,10.27055 4.53305,10.27055 C4.8875,10.27055 5.24110291,9.9161 5.24110291,9.5625 C5.24193088,9.20805 4.88747875,8.85445 4.53305,8.85445 Z M9.42055,7.8625 C8.99555,7.8625 8.7125,8.21695 8.7125,8.57055 C8.7125,8.925 9.06695,9.2786 9.42055,9.2786 C9.775,9.2786 10.1286036,8.92415 10.1286036,8.57055 C10.1294309,8.21692875 9.84555,7.8625 9.42055,7.8625 Z M6.5875,2.69195 C7.72055,2.69195 8.7125,3.6839 8.7125,4.81695 C8.7125,5.95 7.72055,6.94195 6.5875,6.94195 C5.38305,6.94195 4.4625,5.95 4.4625,4.81695 C4.4625,3.6839 5.45445,2.69195 6.5875,2.69195 Z M6.5875,4.0375 C6.1625,4.0375 5.87945,4.39195 5.87945,4.74555 C5.87945,5.1 6.2339,5.4536 6.5875,5.4536 C6.94195,5.4536 7.29555,5.09915 7.29555,4.74555 C7.29555,4.39192875 6.94192875,4.0375 6.5875,4.0375 Z" id="Shape"></path>
                        </g>
                    </g>
                </g>
            </g>
        </g>
    </g>
</svg>