<?xml version="1.0" encoding="UTF-8"?>
<svg width="18px" height="17px" viewBox="0 0 18 17" version="1.1" xmlns="http://www.w3.org/2000/svg" xmlns:xlink="http://www.w3.org/1999/xlink">
    <title>date</title>
    <g id="Page-1" stroke="none" stroke-width="1" fill="none" fill-rule="evenodd">
        <g id="MC_nd_book_final" transform="translate(-150.000000, -294.000000)" fill="#366B26">
            <g id="Group-8" transform="translate(20.500000, 114.000000)">
                <g id="Group-9" transform="translate(19.500000, 116.000000)">
                    <g id="Group-3" transform="translate(110.500000, 35.000000)">
                        <g id="Group-5" transform="translate(0.000000, 28.864258)">
                            <g id="Group" transform="translate(-0.000000, -0.000000)">
                                <g id="Group-5" transform="translate(-0.000000, -0.000000)">
                                    <path d="M4.29176861,0.989019785 C3.72999238,0.989019785 3.27062454,1.44838762 3.27062454,2.01016386 L3.27062454,3.54138997 L5.3119342,3.54138997 L5.3119342,2.01016386 C5.31289064,1.44838762 4.85352035,0.989019785 4.29174412,0.989019785 L4.29176861,0.989019785 Z" id="Fill-1"></path>
                                    <path d="M13.7466407,3.54138997 L13.7466407,4.5429889 C13.7466407,5.0940125 13.2744185,5.54458783 12.6969222,5.54458783 C12.1194259,5.54458783 11.6472037,5.0940125 11.6472037,4.5429889 L11.6472037,3.54138997 L5.35191481,3.54138997 L5.35191481,4.5429889 C5.35191481,5.0940125 4.87969259,5.54458783 4.3021963,5.54458783 C3.7247,5.54458783 3.25247778,5.0940125 3.25247778,4.5429889 L3.25247778,3.54138997 L0.105337037,3.54138997 L0.105337037,17.05865 L16.8957963,17.05865 L16.8948116,3.54138997 L13.7466407,3.54138997 Z M15.5833333,15.5833333 L1.41666667,15.5833333 L1.41666667,5.54823333 L15.5833333,5.54823333 L15.5833333,15.5833333 Z" id="Fill-2"></path>
                                    <path d="M12.7091832,0.989017916 C12.1474065,0.989017916 11.6880383,1.44838609 11.6880383,2.01016274 L11.6880383,3.54138997 L13.729348,3.54138997 L13.729348,2.01016274 C13.729348,1.44838609 13.2699798,0.989017916 12.7091587,0.989017916 L12.7091832,0.989017916 Z" id="Fill-3"></path>
                                    <polygon id="Fill-4" points="7.63815638 13.3121288 5.31193333 10.9859058 6.51865378 9.77918533 7.63815638 10.8994943 10.4813179 8.05633284 11.6880383 9.26224687"></polygon>
                                </g>
                            </g>
                        </g>
                    </g>
                </g>
            </g>
        </g>
    </g>
</svg>