<?xml version="1.0" encoding="UTF-8"?>
<svg width="14px" height="18px" viewBox="0 0 14 18" version="1.1" xmlns="http://www.w3.org/2000/svg" xmlns:xlink="http://www.w3.org/1999/xlink">
    <title>Fill 1</title>
    <g id="Page-1" stroke="none" stroke-width="1" fill="none" fill-rule="evenodd">
        <g id="MC_nd_book1" transform="translate(-124.000000, -156.000000)" fill="#858890">
            <g id="Item-5" transform="translate(11.500000, 121.606658)">
                <g id="Group-3" transform="translate(110.500000, 34.000000)">
                    <g id="Group-4" transform="translate(2.000000, 0.000000)">
                        <path d="M6.95474392,1 C5.1102902,1 3.34124444,1.73241799 2.03709086,3.03634902 C0.732343808,4.34109607 0,6.11016038 0,7.95474392 C0,12.9237694 6.22811228,17.6450205 6.49109433,17.845688 C6.76566762,18.0514373 7.14382023,18.0514373 7.41839352,17.845688 C7.68137557,17.6450206 13.9094878,12.9230275 13.9094878,7.95474392 C13.9094878,6.1102902 13.1770699,4.34124444 11.872397,3.03634902 C10.5683918,1.73234381 8.79932747,1 6.95474392,1 Z M6.95474392,11.0459885 L6.95474392,11.0452634 C6.13465907,11.0452634 5.34862464,10.7199853 4.76909973,10.1404234 C4.18957483,9.56086136 3.86353644,8.77410363 3.86353644,7.95477916 C3.86353644,7.1346943 4.18953774,6.34865987 4.76909973,5.76913497 C5.34866173,5.18961007 6.13469616,4.86357167 6.95474392,4.86357167 C7.77479169,4.86357167 8.56086321,5.18957298 9.14038811,5.76913497 C9.71991302,6.34869696 10.0459514,7.1347314 10.0459514,7.95477916 C10.0459514,8.77414073 9.71995011,9.56089845 9.14038811,10.1404234 C8.56082612,10.7199483 7.77479169,11.0452634 6.95474392,11.0452634 L6.95474392,11.0459885 Z" id="Fill-1"></path>
                    </g>
                </g>
            </g>
        </g>
    </g>
</svg>