<?xml version="1.0" encoding="UTF-8"?>
<svg width="18px" height="16px" viewBox="0 0 18 16" version="1.1" xmlns="http://www.w3.org/2000/svg" xmlns:xlink="http://www.w3.org/1999/xlink">
    <title>courty</title>
    <g id="Page-1" stroke="none" stroke-width="1" fill="none" fill-rule="evenodd">
        <g id="MC_nd_book_final" transform="translate(-150.000000, -351.000000)" fill="#366B26">
            <g id="Group-8" transform="translate(20.500000, 114.000000)">
                <g id="Group-9" transform="translate(19.500000, 116.000000)">
                    <g id="Group-3" transform="translate(110.500000, 35.000000)">
                        <g id="Group-7" transform="translate(0.000000, 84.173340)">
                            <g id="Group-7" transform="translate(0.000000, 2.000000)">
                                <path d="M0.714336865,15.4387379 L16.4242635,15.4387379 C16.8185885,15.4387379 17.1386004,15.0941952 17.1386004,14.6696429 L17.1386004,0.830357143 C17.1386004,0.405804762 16.8185885,0.0612619048 16.4242635,0.0612619048 L0.714336865,0.0612619048 C0.320011947,0.0612619048 0,0.405804762 0,0.830357143 L0,14.6696429 C0,15.0941952 0.320011947,15.4387379 0.714336865,15.4387379 Z M1.42800532,1.59945238 L15.7106294,1.59945238 L15.7106294,13.9005476 L1.42800532,13.9005476 L1.42800532,1.59945238 Z" id="Fill-1"></path>
                                <path d="M0.714336865,11.594 L4.2846501,11.594 C4.67897502,11.594 4.99898697,11.2501768 4.99898697,10.8256244 L4.99898697,4.67433869 C4.99898697,4.24978631 4.67897502,3.9059631 4.2846501,3.9059631 L0.714336865,3.9059631 C0.320011947,3.9059631 0,4.24978631 0,4.67433869 L0,10.8256244 C0,11.2501768 0.320011947,11.594 0.714336865,11.594 Z M1.42800532,5.44345238 L3.57033038,5.44345238 L3.57033038,10.0565476 L1.42800532,10.0565476 L1.42800532,5.44345238 Z" id="Fill-2"></path>
                                <path d="M12.8539503,11.594 L16.4242635,11.594 C16.8185885,11.594 17.1386004,11.2501768 17.1386004,10.8256244 L17.1386004,4.67433869 C17.1386004,4.24978631 16.8185885,3.9059631 16.4242635,3.9059631 L12.8539503,3.9059631 C12.4596254,3.9059631 12.1396134,4.24978631 12.1396134,4.67433869 L12.1396134,10.8256244 C12.1396134,11.2501768 12.4596254,11.594 12.8539503,11.594 Z M13.5682872,5.44345238 L15.7106122,5.44345238 L15.7106122,10.0565476 L13.5682872,10.0565476 L13.5682872,5.44345238 Z" id="Fill-3"></path>
                                <path d="M7.85496334,0.830357143 L7.85496334,6.21254762 C7.85496334,6.6371 8.17497529,6.98092321 8.56930021,6.98092321 C8.96362512,6.98092321 9.28363707,6.6371 9.28363707,6.21254762 L9.28363707,0.830357143 C9.28363707,0.405804762 8.96362512,0.0612619048 8.56930021,0.0612619048 C8.17497529,0.0612619048 7.85496334,0.405804762 7.85496334,0.830357143 Z" id="Fill-4"></path>
                                <path d="M7.85496334,9.28745238 L7.85496334,14.6696429 C7.85496334,15.0941952 8.17497529,15.4387381 8.56930021,15.4387381 C8.96362512,15.4387381 9.28363707,15.0941952 9.28363707,14.6696429 L9.28363707,9.28745238 C9.28363707,8.8629 8.96362512,8.51907679 8.56930021,8.51907679 C8.17497529,8.51907679 7.85496334,8.8629 7.85496334,9.28745238 Z" id="Fill-5"></path>
                                <path d="M9.28363707,7.75 C9.28363707,8.17527202 8.96429353,8.51909524 8.56930021,8.51909524 C8.17430688,8.51909524 7.85496334,8.17527202 7.85496334,7.75 C7.85496334,7.32472798 8.17430688,6.98090476 8.56930021,6.98090476 C8.96429353,6.98090476 9.28363707,7.32472798 9.28363707,7.75 Z M10.7116253,7.75 C10.7116253,6.47564167 9.75292623,5.44345238 8.56930021,5.44345238 C7.38567418,5.44345238 6.42697515,6.47564167 6.42697515,7.75 C6.42697515,9.02435833 7.38567418,10.0565476 8.56930021,10.0565476 C9.75292623,10.0565476 10.7116253,9.02435833 10.7116253,7.75 Z" id="Fill-6"></path>
                            </g>
                        </g>
                    </g>
                </g>
            </g>
        </g>
    </g>
</svg>