<?xml version="1.0" encoding="UTF-8"?>
<svg width="17px" height="17px" viewBox="0 0 17 17" version="1.1" xmlns="http://www.w3.org/2000/svg" xmlns:xlink="http://www.w3.org/1999/xlink">
    <title>tennis</title>
    <g id="Page-1" stroke="none" stroke-width="1" fill="none" fill-rule="evenodd">
        <g id="MC_nd_Clubs" transform="translate(-166.000000, -180.000000)" fill="#366B26">
            <g id="Item-1" transform="translate(21.500000, 120.500000)">
                <g id="Group-3" transform="translate(100.500000, 3.000000)">
                    <g id="Stacked-Group" transform="translate(0.000000, 56.500000)">
                        <g id="Shape-2" transform="translate(44.000000, 0.000000)">
                            <path d="M8.5,0 C13.1944204,0 17,3.80557963 17,8.5 C17,13.1944204 13.1944204,17 8.5,17 C3.80557963,17 -3.55271368e-15,13.1944204 -3.55271368e-15,8.5 C-3.55271368e-15,3.80557963 3.80557963,0 8.5,0 Z M1.4242956,9.56367789 L1.44321531,9.67435287 C2.09117718,13.3117032 5.07063912,15.7197855 8.58944787,15.6339143 C9.72137742,15.6052383 10.0767933,15.1547268 9.80664787,14.0673256 C9.42191631,12.5269898 8.28103358,11.8359736 6.93323055,11.4176227 L6.79308705,11.3752941 L6.65160242,11.3347688 C4.96761949,10.8633132 3.19737096,10.6737395 1.54498834,9.64078165 L1.4242956,9.56367789 Z M8.82549674,1.97791085 C8.55080818,1.58228248 8.23181782,1.32382763 7.78019528,1.36896558 L7.7312956,1.37497108 L7.64036032,1.37672148 C4.63652119,1.47201548 1.47518356,4.64076574 1.36464106,7.62981199 C1.34351083,8.1844563 1.54424026,8.55345289 1.99474219,8.85228585 C2.82331833,9.40088358 3.74093197,9.71557676 4.69696947,9.94573358 C5.91190924,10.2377665 7.15250356,10.4422688 8.29053765,11.0059733 C9.71442088,11.7142129 10.6156997,12.7955893 10.7380355,14.4040893 L10.7467238,14.5329556 C10.7937715,15.132877 11.0702555,15.2230507 11.5670365,14.9835097 C13.0770229,14.2545574 14.2074456,13.1354552 14.9492638,11.6308393 L14.9809278,11.5646616 C15.2006846,11.0879042 15.1420086,10.7998792 14.4996911,10.7494997 L14.3711214,10.7408555 C12.8419864,10.6252867 11.7760848,9.77942231 11.0719888,8.43211539 C10.6467748,7.62023189 10.4110553,6.74846112 10.2070293,5.86607334 L10.1732914,5.71891885 L10.0246504,5.05810921 L9.97053329,4.826582 C9.73131501,3.82503734 9.42505264,2.84820969 8.82549674,1.97791085 Z M9.55381151,1.40559039 L9.63077795,1.52854415 C10.6372633,3.16883917 10.862657,4.89581337 11.2984751,6.55359608 C11.45468,7.14672221 11.6614445,7.72024039 11.9844251,8.24619721 C12.5254888,9.1230688 13.277082,9.7063813 14.3124592,9.86861539 C15.1666899,10.0021832 15.5704013,9.66185289 15.6224638,8.79479494 C15.7288645,7.04257789 15.2459138,5.46009039 14.1660467,4.08676085 C13.0572972,2.68175449 11.6432432,1.76085095 9.66631593,1.42403119 L9.55381151,1.40559039 Z" id="Shape"></path>
                        </g>
                    </g>
                </g>
            </g>
        </g>
    </g>
</svg>