<?xml version="1.0" encoding="UTF-8"?>
<svg width="18px" height="17px" viewBox="0 0 18 17" version="1.1" xmlns="http://www.w3.org/2000/svg" xmlns:xlink="http://www.w3.org/1999/xlink">
    <title>time</title>
    <g id="Page-1" stroke="none" stroke-width="1" fill="none" fill-rule="evenodd">
        <g id="MC_nd_book_final" transform="translate(-150.000000, -323.000000)" fill="#366B26">
            <g id="Group-8" transform="translate(20.500000, 114.000000)">
                <g id="Group-9" transform="translate(19.500000, 116.000000)">
                    <g id="Group-3" transform="translate(110.500000, 35.000000)">
                        <g id="Group-4" transform="translate(0.168945, 56.665527)">
                            <g id="Group-3" transform="translate(0.000000, 1.500000)">
                                <path d="M8.4432373,0.147265767 C10.6429952,0.149622019 12.7514482,1.02479302 14.306182,2.58029259 C15.8617405,4.13502638 16.7369076,6.24347946 16.7392088,8.4432373 C16.7392088,10.6437806 15.8648429,12.7538241 14.3093237,14.3093237 C12.7538045,15.8648233 10.6437806,16.7392088 8.4432373,16.7392088 C6.24269404,16.7392088 4.13265049,15.8648429 2.57715092,14.3093237 C1.02165135,12.7538045 0.147265767,10.6437806 0.147265767,8.4432373 C0.147265767,6.24269404 1.02163171,4.13265049 2.57715092,2.57715092 C4.13267013,1.02165135 6.24269404,0.147265767 8.4432373,0.147265767 Z M8.4432373,1.71810061 C6.65994704,1.71810061 4.94864029,2.42674348 3.68773116,3.68773116 C2.42682203,4.94871883 1.71810061,6.65994704 1.71810061,8.4432373 C1.71810061,10.2265276 2.42674348,11.9378343 3.68773116,13.1987435 C4.94871883,14.4596526 6.65994704,15.168374 8.4432373,15.168374 C10.2265276,15.1660177 11.9354192,14.4573749 13.1963872,13.1963872 C14.4573552,11.9353995 15.1660727,10.2265276 15.168374,8.4432373 C15.168374,6.65994704 14.4597311,4.94864029 13.1987435,3.68773116 C11.9377558,2.42682203 10.2265276,1.71810061 8.4432373,1.71810061 Z M7.65781988,3.22845832 C7.65781988,2.79433847 9.22865473,2.79433847 9.22865473,3.22845832 L9.22865473,3.22845832 L9.22865473,8.06054266 L12.069649,10.2935296 C12.2391577,10.4200996 12.3733266,10.4753001 12.4009399,10.6846924 C12.4285533,10.8940847 11.7755267,11.6868891 11.5653687,11.7098999 C11.3551909,11.7329087 11.2635201,11.6626437 11.1001474,11.5284178 L11.1001474,11.5284178 L11.1001474,11.5276501 L7.95847767,9.06163571 C7.76826921,8.91283838 7.65781988,8.68504769 7.65781988,8.44343366 L7.65781988,8.44343366 Z" id="Combined-Shape"></path>
                            </g>
                        </g>
                    </g>
                </g>
            </g>
        </g>
    </g>
</svg>