<?xml version="1.0" encoding="UTF-8"?>
<svg width="18px" height="16px" viewBox="0 0 18 16" version="1.1" xmlns="http://www.w3.org/2000/svg" xmlns:xlink="http://www.w3.org/1999/xlink">
    <title>user</title>
    <g id="Page-1" stroke="none" stroke-width="1" fill="none" fill-rule="evenodd">
        <g id="MC_nd_book_final" transform="translate(-150.000000, -377.000000)" stroke="#366B26" stroke-width="1.8">
            <g id="Group-8" transform="translate(20.500000, 114.000000)">
                <g id="Group-9" transform="translate(19.500000, 116.000000)">
                    <g id="Group-3" transform="translate(110.500000, 35.000000)">
                        <g id="Group-7" transform="translate(1.000000, 110.173340)">
                            <g id="Shape" transform="translate(0.027832, 3.000000)">
                                <path d="M7.29703256,8.40321407 C8.77880914,8.40436184 10.2617335,8.62181055 11.4889911,9.04886579 L11.4889911,9.04774671 C12.4473252,9.38065863 13.2454014,9.83796059 13.7811824,10.3782179 C14.3158444,10.9184753 14.6005498,11.5192777 14.6005498,12.2624042 L14.6005498,13.4494036 L4.79616347e-14,13.4494036 L4.79616347e-14,12.2624042 C4.79616347e-14,11.4105261 0.369899238,10.7391356 1.06146193,10.1484335 C1.75305331,9.55885059 2.77417068,9.08921005 3.95557473,8.79216607 C4.98903068,8.53212347 6.14351943,8.40321407 7.29703256,8.40321407 Z M7.29358924,-4.2721382e-13 C9.01080301,-4.2721382e-13 10.4152483,1.38975377 10.4152483,3.09124304 C10.4152483,4.7937366 9.01077431,6.18248607 7.29358924,6.18248607 C5.58647588,6.18248607 4.18426876,4.7927323 4.18426876,3.09124304 C4.18426876,1.38874947 5.58650457,-4.2721382e-13 7.29358924,-4.2721382e-13 Z"></path>
                            </g>
                        </g>
                    </g>
                </g>
            </g>
        </g>
    </g>
</svg>