<?xml version="1.0" encoding="UTF-8"?>
<svg width="23px" height="14px" viewBox="0 0 23 14" version="1.1" xmlns="http://www.w3.org/2000/svg" xmlns:xlink="http://www.w3.org/1999/xlink">
    <title>Group 5</title>
    <g id="Page-1" stroke="none" stroke-width="1" fill="none" fill-rule="evenodd">
        <g id="MC_nd_bookCourt" transform="translate(-35.000000, -432.000000)" fill="#366B26">
            <g id="Group-12" transform="translate(20.000000, 419.000000)">
                <g id="Group-5" transform="translate(15.000000, 13.000000)">
                    <path d="M7.1204,9.0748 L7.11928,9.07592 C8.56632,9.07592 10.01336,9.2881068 11.21092,9.704828 L11.21092,9.703736 C12.146064,10.028592 12.924828,10.474828 13.447644,11.002012 C13.969368,11.529196 14.247184,12.11546 14.247184,12.840604 L14.247184,13.99888 L-5.62799991e-05,13.99888 L-5.62799991e-05,12.840604 C-5.62799991e-05,12.00934 0.360892,11.354196 1.03572,10.777788 C1.710576,10.202472 2.706984,9.744196 3.8598,9.45434 C4.868248,9.20059 5.9948,9.0748 7.1204,9.0748 Z M7.11704,5.10702591e-13 C8.7927,5.10702591e-13 10.16316,1.356124 10.16316,3.01644 C10.16316,4.677736 8.792672,6.03288 7.11704,6.03288 C5.451236,6.03288 4.08296,4.676756 4.08296,3.01644 C4.08296,1.355144 5.451264,5.10702591e-13 7.11704,5.10702591e-13 Z" id="Combined-Shape"></path>
                    <path d="M15.46132,9.08152 C16.56928,9.0946436 17.670688,9.23027 18.65388,9.48948 C19.778248,9.785888 20.744024,10.24198 21.397012,10.810744 C22.05,11.379508 22.39888,12.024796 22.39888,12.840744 L22.39888,13.99902 L15.36612,13.99902 L15.36612,12.840744 C15.36612,11.81152 14.930804,10.909192 14.242844,10.214652 C13.880804,9.848244 13.450976,9.534336 12.971896,9.265284 C13.772528,9.134034 14.617988,9.0716892 15.460172,9.081534 L15.46132,9.08152 Z M15.28296,5.10702591e-13 C16.949856,5.10702591e-13 18.31704,1.356124 18.31704,3.01644 C18.31704,4.677736 16.948736,6.03288 15.28296,6.03288 C13.616064,6.03288 12.24888,4.676756 12.24888,3.01644 C12.24888,1.355144 13.617184,5.10702591e-13 15.28296,5.10702591e-13 Z" id="Combined-Shape" opacity="0.400000006"></path>
                </g>
            </g>
        </g>
    </g>
</svg>